<svg width="40" height="40" viewBox="0 0 40 40" fill="none" xmlns="http://www.w3.org/2000/svg">
<path d="M29.1667 14.9984C27.6746 14.9977 26.2056 15.3668 24.891 16.0726C24.771 15.7566 24.5578 15.4847 24.2795 15.2928C24.0013 15.1009 23.6713 14.9982 23.3333 14.9984H16.6667C16.4478 14.9983 16.231 15.0413 16.0287 15.125C15.8265 15.2087 15.6427 15.3315 15.4879 15.4863C15.3331 15.6411 15.2103 15.8248 15.1266 16.0271C15.0429 16.2294 14.9999 16.4461 15 16.6651V36.6651C14.9999 36.884 15.0429 37.1007 15.1266 37.303C15.2103 37.5053 15.3331 37.6891 15.4879 37.8438C15.6427 37.9986 15.8265 38.1214 16.0287 38.2051C16.231 38.2888 16.4478 38.3318 16.6667 38.3317H23.3333C23.5523 38.3318 23.769 38.2888 23.9713 38.2051C24.1736 38.1214 24.3574 37.9986 24.5121 37.8438C24.6669 37.6891 24.7897 37.5053 24.8734 37.303C24.9571 37.1007 25.0001 36.884 25 36.6651V27.4984C25 27.0564 25.1756 26.6324 25.4882 26.3199C25.8007 26.0073 26.2247 25.8317 26.6667 25.8317C27.1087 25.8317 27.5326 26.0073 27.8452 26.3199C28.1578 26.6324 28.3333 27.0564 28.3333 27.4984V36.6651C28.3332 36.884 28.3762 37.1007 28.46 37.303C28.5437 37.5053 28.6664 37.6891 28.8212 37.8438C28.976 37.9986 29.1598 38.1214 29.3621 38.2051C29.5643 38.2888 29.7811 38.3318 30 38.3317H36.6667C36.8856 38.3318 37.1024 38.2888 37.3046 38.2051C37.5069 38.1214 37.6907 37.9986 37.8455 37.8438C38.0003 37.6891 38.123 37.5053 38.2067 37.303C38.2905 37.1007 38.3335 36.884 38.3333 36.6651V24.1651C38.3303 21.7348 37.3636 19.405 35.6452 17.6866C33.9267 15.9681 31.5969 15.0014 29.1667 14.9984ZM35 34.9984H31.6667V27.4984C31.6667 26.1723 31.1399 24.9005 30.2022 23.9629C29.2645 23.0252 27.9928 22.4984 26.6667 22.4984C25.3406 22.4984 24.0688 23.0252 23.1311 23.9629C22.1935 24.9005 21.6667 26.1723 21.6667 27.4984V34.9984H18.3333V18.3317H21.6667V19.5036C21.6669 19.8489 21.7743 20.1857 21.9741 20.4674C22.1739 20.749 22.4562 20.9617 22.7821 21.076C23.1079 21.1904 23.4612 21.2007 23.7932 21.1056C24.1252 21.0106 24.4195 20.8148 24.6354 20.5453C25.3834 19.5953 26.4093 18.9027 27.57 18.564C28.7307 18.2253 29.9681 18.2576 31.1096 18.6562C32.251 19.0549 33.2395 19.8 33.937 20.7876C34.6344 21.7752 35.0061 22.956 35 24.1651V34.9984ZM11.6667 14.9984H5.00001C4.78111 14.9983 4.56433 15.0413 4.36206 15.125C4.15979 15.2087 3.97601 15.3315 3.82122 15.4863C3.66643 15.6411 3.54367 15.8248 3.45996 16.0271C3.37625 16.2294 3.33322 16.4461 3.33335 16.6651V36.6651C3.33322 36.884 3.37624 37.1007 3.45995 37.303C3.54367 37.5053 3.66643 37.6891 3.82122 37.8438C3.97601 37.9986 4.15979 38.1214 4.36206 38.2051C4.56432 38.2888 4.78111 38.3318 5.00001 38.3317H11.6667C11.8856 38.3318 12.1024 38.2888 12.3046 38.2051C12.5069 38.1214 12.6907 37.9986 12.8455 37.8438C13.0003 37.6891 13.123 37.5053 13.2067 37.303C13.2905 37.1007 13.3335 36.884 13.3333 36.6651V16.6651C13.3335 16.4461 13.2904 16.2294 13.2067 16.0271C13.123 15.8248 13.0003 15.6411 12.8455 15.4863C12.6907 15.3315 12.5069 15.2087 12.3046 15.125C12.1024 15.0413 11.8856 14.9983 11.6667 14.9984ZM10 34.9984H6.66668V18.3317H10V34.9984ZM8.35776 2.57005C7.62836 2.52639 6.89771 2.63155 6.21022 2.87913C5.52274 3.12671 4.8928 3.51153 4.35871 4.01021C3.82462 4.50888 3.39754 5.11098 3.10344 5.77989C2.80935 6.44879 2.65438 7.17053 2.64797 7.9012C2.64156 8.63188 2.78384 9.35623 3.06615 10.0302C3.34847 10.7042 3.76492 11.3137 4.29018 11.8216C4.81543 12.3296 5.43853 12.7254 6.12156 12.985C6.80459 13.2446 7.53329 13.3626 8.26335 13.3317H8.31055C9.04187 13.3752 9.77438 13.269 10.4633 13.0198C11.1522 12.7706 11.7831 12.3835 12.3174 11.8822C12.8517 11.381 13.2781 10.776 13.5707 10.1044C13.8633 9.43269 14.0158 8.70843 14.019 7.97582C14.0223 7.24321 13.8761 6.51764 13.5894 5.84344C13.3027 5.16924 12.8816 4.56057 12.3517 4.05463C11.8219 3.54869 11.1944 3.15609 10.5077 2.90084C9.82097 2.64558 9.08943 2.53303 8.35775 2.57005H8.35776ZM8.31056 9.99839H8.26335C7.97512 10.0334 7.68275 10.0064 7.40583 9.9191C7.12891 9.83185 6.87385 9.68639 6.65775 9.49249C6.44165 9.29859 6.26951 9.06072 6.15287 8.79484C6.03623 8.52896 5.97779 8.24122 5.98146 7.9509C5.98146 6.7074 6.91408 5.90337 8.35776 5.90337C8.64893 5.86455 8.94503 5.88858 9.22612 5.97384C9.50722 6.0591 9.76678 6.2036 9.98732 6.39762C10.2079 6.59164 10.3843 6.83067 10.5047 7.09861C10.625 7.36654 10.6866 7.65717 10.6852 7.9509C10.6852 9.19439 9.75261 9.99839 8.31056 9.99839Z" fill="white"/>
</svg>
